<?xml version="1.0" standalone="no"?>
<!DOCTYPE svg PUBLIC "-//W3C//DTD SVG 20010904//EN"
 "http://www.w3.org/TR/2001/REC-SVG-20010904/DTD/svg10.dtd">
<svg version="1.0" xmlns="http://www.w3.org/2000/svg"
 width="333.000000pt" height="292.000000pt" viewBox="0 0 333.000000 292.000000"
 preserveAspectRatio="xMidYMid meet">
<metadata>
Created by potrace 1.16, written by Peter Selinger 2001-2019
</metadata>
<g transform="translate(0.000000,292.000000) scale(0.100000,-0.100000)"
fill="#000000" stroke="none">
<path d="M2941 2077 c-6 -8 -12 -66 -13 -140 -2 -69 -5 -127 -8 -130 -3 -3
-24 -8 -46 -12 l-41 -6 -5 87 c-4 71 -8 90 -23 98 -10 6 -27 21 -38 34 -25 27
-48 28 -70 4 -14 -16 -17 -42 -16 -168 0 -82 3 -157 7 -166 4 -10 6 59 4 151
-4 165 -3 170 18 181 41 22 50 -1 50 -125 0 -61 2 -114 5 -117 7 -6 151 25
162 35 4 5 10 65 13 134 4 107 8 128 23 137 39 24 43 -5 42 -308 -1 -291 -5
-316 -41 -316 -26 0 -34 40 -34 165 l0 125 -27 -6 c-16 -3 -51 -12 -79 -20
l-51 -14 -8 -137 c-4 -76 -11 -144 -17 -150 -6 -7 -21 -13 -34 -13 -23 0 -23
1 -27 128 l-3 127 -2 -132 c-2 -132 -2 -133 21 -133 13 0 26 -9 32 -22 13 -30
36 -33 66 -9 23 18 24 25 27 154 l4 136 30 10 c57 20 58 19 58 -78 0 -102 11
-141 39 -141 10 0 21 -9 24 -20 7 -25 48 -27 69 -2 13 14 15 61 14 317 l-1
299 -24 12 c-13 7 -28 20 -33 28 -11 20 -51 21 -67 3z"/>
<path d="M2384 1940 c-51 -9 -106 -23 -123 -30 -47 -19 -56 -80 -12 -80 10 0
21 -9 24 -20 3 -14 14 -20 32 -20 l27 0 -4 -226 c-3 -212 -2 -226 16 -239 10
-8 22 -12 26 -10 4 2 12 -7 18 -20 14 -30 33 -32 57 -5 14 16 17 35 16 107 -1
48 1 163 5 254 l7 166 42 11 c24 6 50 19 60 28 22 23 16 58 -12 62 -12 2 -25
12 -28 23 -8 23 -25 23 -151 -1z m143 -6 c6 -19 -26 -43 -73 -55 -43 -11 -44
-12 -45 -53 -1 -22 -4 -140 -8 -260 -5 -192 -8 -220 -23 -230 -40 -24 -43 0
-40 269 l4 254 -33 -9 c-48 -14 -69 -12 -76 6 -11 29 26 48 135 70 114 24 153
26 159 8z"/>
<path d="M2015 1868 c-11 -6 -23 -16 -27 -22 -12 -17 -10 -554 2 -577 6 -10
19 -19 29 -19 10 0 21 -9 24 -20 6 -23 55 -28 75 -8 16 16 17 560 2 589 -6 10
-18 19 -28 19 -9 0 -22 10 -27 22 -12 27 -24 31 -50 16z m53 -304 c4 -287 2
-304 -39 -304 -35 0 -39 32 -39 309 0 267 0 270 22 285 20 14 24 14 38 1 13
-13 16 -60 18 -291z"/>
<path d="M1809 1820 c-25 -15 -55 -95 -80 -217 -12 -61 -26 -110 -29 -108 -4
2 -17 48 -30 102 -16 63 -31 103 -44 115 -12 11 -31 29 -44 41 -21 20 -24 21
-50 7 -35 -20 -38 -48 -13 -134 11 -39 37 -145 56 -236 37 -167 53 -210 80
-210 8 0 15 -4 15 -10 0 -21 46 -41 72 -31 35 13 54 60 83 207 31 155 70 314
92 371 13 35 13 46 3 58 -7 8 -18 15 -24 15 -6 0 -17 9 -24 20 -13 21 -37 25
-63 10z m51 -15 c0 -8 -11 -54 -25 -102 -14 -48 -43 -173 -65 -277 -21 -103
-46 -199 -55 -212 -20 -31 -60 -32 -79 -1 -8 12 -32 103 -55 202 -22 99 -47
203 -55 230 -21 68 -20 92 5 106 17 9 24 8 36 -4 15 -15 88 -287 99 -370 4
-26 9 -46 11 -43 2 2 21 82 43 177 50 230 56 252 81 283 22 28 59 35 59 11z"/>
<path d="M1184 1710 c-30 -12 -70 -67 -89 -121 -21 -59 -102 -382 -110 -441
-9 -60 0 -98 22 -98 10 0 27 -12 38 -26 21 -26 22 -26 52 -11 26 14 32 24 37
64 17 117 13 111 68 123 28 6 52 9 54 7 2 -2 7 -21 12 -43 5 -26 16 -43 32
-51 13 -6 27 -19 32 -27 13 -22 51 -20 74 5 18 20 17 26 -23 269 -39 236 -60
310 -85 310 -6 0 -21 11 -34 25 -24 26 -44 30 -80 15z m63 -15 c26 -18 25 -17
74 -303 l39 -236 -20 -21 c-31 -31 -53 -10 -65 63 -5 33 -13 63 -16 67 -7 6
-156 -19 -165 -28 -3 -3 -10 -40 -17 -83 -11 -72 -14 -79 -40 -88 -63 -23 -60
43 17 336 56 211 80 269 125 293 33 18 42 18 68 0z"/>
<path d="M1180 1605 c-29 -76 -82 -305 -71 -305 11 0 124 20 137 24 18 7 -28
306 -48 306 -4 0 -13 -11 -18 -25z"/>
<path d="M607 1590 c-100 -39 -149 -101 -92 -116 l25 -6 2 -247 c3 -243 3
-246 24 -249 12 -2 24 -12 27 -23 3 -12 14 -19 30 -19 41 0 57 25 57 88 0 99
12 193 24 189 6 -2 21 -43 33 -91 22 -87 36 -116 55 -116 5 0 18 -10 28 -22
15 -19 22 -21 46 -13 37 13 42 55 18 145 -22 84 -40 120 -72 147 l-25 22 25
33 c41 54 58 94 58 137 0 34 -6 46 -42 81 -48 46 -112 80 -149 80 -13 -1 -46
-9 -72 -20z m130 -9 c42 -19 73 -61 73 -99 0 -27 -46 -115 -75 -142 l-25 -23
30 -18 c36 -22 53 -55 80 -150 25 -93 25 -115 -1 -130 -31 -16 -46 4 -68 92
-31 126 -43 144 -96 151 l-30 3 -3 -126 c-2 -110 -5 -129 -22 -144 -11 -10
-26 -15 -35 -12 -13 6 -15 41 -15 256 0 196 -3 249 -12 246 -20 -7 -42 11 -35
29 8 19 142 86 172 86 11 0 39 -9 62 -19z"/>
<path d="M620 1435 c0 -52 3 -95 6 -95 19 0 76 45 93 74 41 65 17 116 -55 116
l-44 0 0 -95z"/>
<path d="M175 1538 c-22 -6 -50 -14 -62 -19 l-23 -9 0 -300 c0 -189 4 -309 10
-321 6 -10 19 -19 29 -19 10 0 21 -9 24 -20 3 -13 14 -20 31 -20 42 0 56 42
56 164 l0 105 45 20 c70 31 112 68 140 124 47 95 30 176 -52 245 -76 63 -109
71 -198 50z m144 -26 c40 -30 61 -64 67 -114 13 -93 -71 -205 -177 -237 l-37
-11 5 -98 c4 -75 2 -105 -10 -134 -17 -41 -40 -49 -57 -19 -16 30 -14 597 3
608 22 15 111 31 147 27 19 -2 46 -12 59 -22z"/>
<path d="M177 1463 c-4 -3 -7 -60 -7 -125 0 -136 5 -141 77 -89 102 74 87 221
-22 221 -23 0 -45 -3 -48 -7z"/>
</g>
</svg>
